<svg xmlns="http://www.w3.org/2000/svg" viewBox="0 0 5088 1024" role="img" aria-label="KillerScan">
<defs><filter id="ds" x="-12%" y="-25%" width="124%" height="150%"><feDropShadow dx="0" dy="-22" stdDeviation="17" flood-color="#000000" flood-opacity="0.33"/></filter></defs>
<g transform="translate(40,944) scale(1,-1)" filter="url(#ds)">
<g fill="#ffffff" transform="translate(-26,0)">
  <path d="M37 517V48Q37 43 41.0 32.0Q45 21 47 19Q48 17 59.5 13.5Q71 10 76 9Q77 9 83.0 8.5Q89 8 92 8Q94 8 99.5 8.5Q105 9 105 9Q107 10 118.5 17.5Q130 25 135 29Q139 32 146.0 39.0Q153 46 154 48Q155 51 157.0 57.5Q159 64 160.5 72.0Q162 80 163.0 87.0Q164 94 164 97Q164 98 162.5 102.5Q161 107 159.0 111.5Q157 116 155.5 120.5Q154 125 154 126Q154 127 154 132Q154 138 153.5 145.0Q153 152 153 159Q153 166 153 170Q153 177 153.5 190.5Q154 204 154 205Q155 207 158.5 212.5Q162 218 166.5 224.0Q171 230 175.5 236.0Q180 242 183 244Q184 244 187.5 244.5Q191 245 193 245Q195 245 198.5 244.5Q202 244 203 244L262 185Q263 183 266.5 175.0Q270 167 271 165Q273 161 277.5 153.5Q282 146 287.0 138.5Q292 131 296.0 124.5Q300 118 301 117Q302 115 306.0 111.5Q310 108 311 107Q313 104 320.0 92.5Q327 81 335.0 67.5Q343 54 350.0 43.0Q357 32 359 29Q362 26 373.0 18.5Q384 11 389 9Q390 9 396.0 8.5Q402 8 404 8Q407 8 412.5 8.5Q418 9 418 9Q420 10 426.0 15.5Q432 21 438.0 27.0Q444 33 449.5 39.0Q455 45 457 48Q457 48 457.5 51.5Q458 55 458 57Q458 59 457.5 63.0Q457 67 457 68Q456 72 452.5 83.0Q449 94 447 97Q447 98 444.0 102.5Q441 107 438.0 111.5Q435 116 432.0 120.5Q429 125 428 126Q427 128 423.5 136.0Q420 144 418.0 146.0Q416 148 409.0 155.0Q402 162 393.5 170.0Q385 178 377.5 185.5Q370 193 369 195Q368 196 365.0 203.5Q362 211 359.0 219.0Q356 227 353.5 234.5Q351 242 350 244Q349 245 345.5 250.0Q342 255 337.0 261.5Q332 268 327.5 274.0Q323 280 320 283Q319 285 310.5 292.5Q302 300 301 302Q299 305 295.0 313.0Q291 321 286.5 330.0Q282 339 277.5 348.0Q273 357 271 361V366V371Q273 376 276.5 387.0Q280 398 281 400Q283 404 288.5 414.5Q294 425 300.5 436.0Q307 447 312.5 456.5Q318 466 320.0 469.0Q322 472 331.0 483.5Q340 495 349.5 508.0Q359 521 368.0 532.5Q377 544 379.0 547.0Q381 550 385.5 557.0Q390 564 394.5 571.5Q399 579 403.0 586.0Q407 593 408 596Q410 598 413.5 609.0Q417 620 418 625V630V635Q417 637 413.5 640.5Q410 644 408 645H384H359Q358 644 354.5 640.5Q351 637 350.0 635.0Q349 633 346.0 627.5Q343 622 340.0 615.0Q337 608 334.0 602.5Q331 597 330 596Q328 593 320.0 582.0Q312 571 302.5 558.5Q293 546 284.0 534.5Q275 523 271 517Q270 515 262.0 507.5Q254 500 252 498Q251 497 248.5 492.5Q246 488 242.5 483.0Q239 478 236.0 474.0Q233 470 232.0 469.0Q231 468 227.0 465.0Q223 462 217.5 459.0Q212 456 208.0 453.0Q204 450 203 449Q201 447 197.0 440.0Q193 433 188.0 425.0Q183 417 179.0 409.5Q175 402 174 400Q172 397 164.0 390.0Q156 383 154 381Q154 380 152 380Q150 380 149 380Q145 380 144 381Q142 383 139.0 390.0Q136 397 135 400Q134 402 134.5 410.0Q135 418 135 420Q135 422 133.0 432.0Q131 442 129.5 453.5Q128 465 126.5 475.0Q125 485 125 488Q125 491 125 501Q125 511 125 522Q125 534 125 544Q125 554 125 557Q125 560 123.5 568.0Q122 576 120.5 585.5Q119 595 117.5 603.5Q116 612 115 615Q114 617 110.5 625.0Q107 633 105 635Q102 639 95.0 646.0Q88 653 86 654Q85 655 79 655Q74 655 72 655Q69 655 63 655Q57 655 56 654Q55 654 51.5 650.5Q48 647 47 645Q45 642 41.5 635.5Q38 629 35.0 623.0Q32 617 29.5 611.5Q27 606 27 605Q27 605 26.5 596.5Q26 588 26 583Q26 578 26.5 568.0Q27 558 27 557Q27 554 28.5 548.5Q30 543 31.5 536.5Q33 530 34.5 524.5Q36 519 37 517Z" transform="translate(0,0)"/>
  <path d="M11 63Q11 62 11.5 60.0Q12 58 12 58Q16 53 27.0 42.0Q38 31 41 29Q46 27 60.5 23.0Q75 19 80 19Q86 19 102 19Q118 19 136.0 18.5Q154 18 170 18Q187 18 193 18Q204 18 222 18Q240 18 258.0 18.5Q276 19 289 19Q303 19 305 19Q307 19 315.0 20.0Q323 21 332.5 22.5Q342 24 350.5 26.0Q359 28 364 29Q368 30 379.5 33.5Q391 37 393 39Q395 40 399.0 43.5Q403 47 403 48Q404 50 404.5 58.0Q405 66 405 71Q405 74 404.5 80.5Q404 87 403 87Q402 88 396.5 90.0Q391 92 384.0 93.5Q377 95 371.0 96.0Q365 97 364 97Q362 98 354.5 102.5Q347 107 345 107Q343 107 334 107Q325 107 315 107Q306 107 297 107Q288 107 286 107Q284 107 280.5 111.0Q277 115 276 117Q274 122 270.5 137.0Q267 152 266 156Q266 160 266 179Q266 198 266 219Q266 241 266 259Q266 278 266 283Q266 286 264.5 297.5Q263 309 261.5 322.5Q260 336 258.5 347.0Q257 358 257 361Q257 364 257 374Q257 384 257 395Q257 407 257 417Q257 427 257 430Q256 432 252.5 439.0Q249 446 247 449Q245 451 241.5 454.5Q238 458 237 459Q236 459 231.5 460.5Q227 462 222.0 464.0Q217 466 213.0 467.5Q209 469 208 469Q206 470 198.0 474.5Q190 479 188 479Q187 479 172.0 475.0Q157 471 149 469Q147 468 134.5 464.0Q122 460 120 459Q117 458 111.5 456.5Q106 455 99.5 453.5Q93 452 87.5 450.5Q82 449 80 449Q80 449 76.0 449.5Q72 450 71 449Q69 448 65.5 445.0Q62 442 61 440Q61 439 60.5 437.5Q60 436 60 435Q60 433 60.5 431.5Q61 430 61 430Q63 426 70.5 418.5Q78 411 80.0 410.0Q82 409 89.5 407.5Q97 406 105.0 404.5Q113 403 120.0 402.0Q127 401 129 400Q133 399 139.5 397.5Q146 396 152.0 394.5Q158 393 163.0 392.0Q168 391 168 391Q170 390 173.5 386.5Q177 383 178 381Q178 377 178.5 364.0Q179 351 179 347Q179 340 178.5 327.0Q178 314 178 312Q178 310 176.5 303.0Q175 296 173.5 287.5Q172 279 170.0 272.0Q168 265 168 264Q168 257 167.5 240.5Q167 224 167 205Q167 186 167.5 169.5Q168 153 168 146Q168 144 164.5 136.5Q161 129 159 127Q155 123 143.5 115.5Q132 108 129 107Q127 107 118 107Q110 107 100 107Q90 107 81 107Q73 107 71 107Q69 107 62.0 103.0Q55 99 51.0 97.0Q47 95 36.0 87.5Q25 80 22 78Q20 76 16.5 72.5Q13 69 12 68Q12 68 11.5 66.0Q11 64 11 63ZM158 612Q158 609 158 603Q158 597 159 596Q159 593 162.5 581.5Q166 570 168 567Q169 565 172.5 561.5Q176 558 178 557Q181 555 188.5 551.0Q196 547 198 547Q199 547 209.0 546.5Q219 546 224 546Q229 546 237.5 546.5Q246 547 247 547Q249 548 256.5 555.5Q264 563 266 567Q267 568 268.5 573.0Q270 578 271.5 584.0Q273 590 274.5 596.5Q276 603 276 606Q276 607 276.5 611.0Q277 615 277 617Q277 619 276.5 622.0Q276 625 276 625Q274 628 270.0 632.5Q266 637 261.5 642.0Q257 647 252.5 650.5Q248 654 247 655Q246 655 238.0 655.5Q230 656 225 656Q220 656 209.5 655.5Q199 655 198 655Q196 654 188.5 650.5Q181 647 178 645Q174 642 167.0 634.5Q160 627 159 625Q158 625 158 620Q158 615 158 612Z" transform="translate(478,0)"/>
  <path d="M55 10Q66 9 93.5 7.5Q121 6 152.5 4.5Q184 3 212.0 1.5Q240 0 251 0H304H358Q360 1 364.5 5.5Q369 10 373.5 14.5Q378 19 382.0 23.0Q386 27 387 29Q390 33 394.0 40.0Q398 47 397 49Q396 53 388.5 60.5Q381 68 378 68L260 88V586Q260 588 253.0 595.5Q246 603 241 606Q239 608 231.0 611.5Q223 615 221 616Q218 616 207.0 617.5Q196 619 181.5 620.5Q167 622 153.5 623.5Q140 625 133 626H116H104Q102 625 98.0 621.5Q94 618 89.5 613.0Q85 608 81.0 603.5Q77 599 75 596Q74 596 74 591Q74 587 75 586Q77 584 84.0 576.5Q91 569 94 567Q96 565 104.0 561.5Q112 558 114 557Q116 557 128.5 557.5Q141 558 143 557Q144 557 149.5 554.5Q155 552 161.0 549.0Q167 546 173.0 542.5Q179 539 182 538Q184 537 187.5 533.5Q191 530 192 528V489V450Q192 443 190.5 425.0Q189 407 187.5 386.5Q186 366 184.5 348.0Q183 330 182 323Q182 321 180.5 312.0Q179 303 177.5 293.5Q176 284 174.0 275.0Q172 266 172 264Q172 260 172 245Q172 231 172 214Q172 198 172 184Q172 170 172 166Q172 163 171.0 154.5Q170 146 168.5 136.5Q167 127 165.5 119.0Q164 111 163 108Q159 106 148.0 102.5Q137 99 133 98Q127 96 112.0 93.5Q97 91 79.5 88.0Q62 85 47.0 82.0Q32 79 26 78Q24 78 20.5 74.0Q17 70 16 68Q16 68 15.5 62.0Q15 56 15 53Q15 50 15.5 45.0Q16 40 16 39Q17 37 24.5 29.5Q32 22 36 20Q38 18 45.5 14.5Q53 11 55 10Z" transform="translate(895,0)"/>
  <path d="M55 10Q66 9 93.5 7.5Q121 6 152.5 4.5Q184 3 212.0 1.5Q240 0 251 0H304H358Q360 1 364.5 5.5Q369 10 373.5 14.5Q378 19 382.0 23.0Q386 27 387 29Q390 33 394.0 40.0Q398 47 397 49Q396 53 388.5 60.5Q381 68 378 68L260 88V586Q260 588 253.0 595.5Q246 603 241 606Q239 608 231.0 611.5Q223 615 221 616Q218 616 207.0 617.5Q196 619 181.5 620.5Q167 622 153.5 623.5Q140 625 133 626H116H104Q102 625 98.0 621.5Q94 618 89.5 613.0Q85 608 81.0 603.5Q77 599 75 596Q74 596 74 591Q74 587 75 586Q77 584 84.0 576.5Q91 569 94 567Q96 565 104.0 561.5Q112 558 114 557Q116 557 128.5 557.5Q141 558 143 557Q144 557 149.5 554.5Q155 552 161.0 549.0Q167 546 173.0 542.5Q179 539 182 538Q184 537 187.5 533.5Q191 530 192 528V489V450Q192 443 190.5 425.0Q189 407 187.5 386.5Q186 366 184.5 348.0Q183 330 182 323Q182 321 180.5 312.0Q179 303 177.5 293.5Q176 284 174.0 275.0Q172 266 172 264Q172 260 172 245Q172 231 172 214Q172 198 172 184Q172 170 172 166Q172 163 171.0 154.5Q170 146 168.5 136.5Q167 127 165.5 119.0Q164 111 163 108Q159 106 148.0 102.5Q137 99 133 98Q127 96 112.0 93.5Q97 91 79.5 88.0Q62 85 47.0 82.0Q32 79 26 78Q24 78 20.5 74.0Q17 70 16 68Q16 68 15.5 62.0Q15 56 15 53Q15 50 15.5 45.0Q16 40 16 39Q17 37 24.5 29.5Q32 22 36 20Q38 18 45.5 14.5Q53 11 55 10Z" transform="translate(1303,0)"/>
  <path d="M24 241Q24 235 24 226Q24 217 24.5 208.0Q25 199 25 192Q25 186 25 186Q25 181 27.5 169.5Q30 158 33.5 145.5Q37 133 40.0 122.0Q43 111 45 107Q46 105 49.5 99.5Q53 94 57.5 88.0Q62 82 66.5 76.5Q71 71 74 68Q75 67 78.5 64.5Q82 62 86.5 59.0Q91 56 95.5 53.0Q100 50 103 49Q108 46 122.5 38.5Q137 31 142 29Q146 29 155 29Q164 29 174.0 28.5Q184 28 193 28Q202 28 206 28Q212 28 222 28Q233 28 243.0 28.5Q253 29 261 29Q269 29 270 29Q271 29 277.0 30.0Q283 31 290.5 32.5Q298 34 306.0 36.0Q314 38 319 39Q323 40 329.5 41.5Q336 43 342.0 44.5Q348 46 353.0 47.5Q358 49 358 49Q360 50 367.0 56.5Q374 63 382.0 70.5Q390 78 397.0 85.5Q404 93 407 97Q408 98 410.5 103.5Q413 109 416.0 115.0Q419 121 422.0 127.5Q425 134 426 137Q426 137 426.5 139.0Q427 141 427 142Q427 143 426.5 144.5Q426 146 426 146Q424 149 419.5 153.5Q415 158 410.5 163.0Q406 168 402.0 171.5Q398 175 397 176Q396 176 390.5 176.5Q385 177 383 177Q380 177 374.0 176.5Q368 176 367 176Q365 175 357.5 166.5Q350 158 348 156Q342 152 329.5 145.5Q317 139 304.5 133.0Q292 127 282.0 122.0Q272 117 270 117Q269 117 263.5 116.5Q258 116 250.5 115.5Q243 115 235 115Q227 115 223 115Q218 115 210 115Q202 115 193.5 115.5Q185 116 179.0 116.5Q173 117 172 117Q170 117 165.0 119.5Q160 122 154.0 125.0Q148 128 142.0 131.5Q136 135 133 137Q131 139 123.0 146.0Q115 153 113 156Q111 160 107.0 167.0Q103 174 103 176Q104 178 111.0 189.0Q118 200 123 205Q126 209 133.5 216.5Q141 224 142 225Q143 225 150.0 225.5Q157 226 161 226Q165 226 172.5 225.5Q180 225 182 225Q184 224 191.5 219.5Q199 215 201 215Q202 215 205.5 214.5Q209 214 211 214Q213 214 216.5 214.5Q220 215 221 215Q222 215 225.5 219.5Q229 224 230 225Q233 226 241.5 227.5Q250 229 259.5 230.5Q269 232 277.5 233.0Q286 234 289 234Q295 234 308.5 234.5Q322 235 338 235Q354 235 367.5 234.5Q381 234 387 234Q390 235 396.5 240.0Q403 245 409.0 251.5Q415 258 420.0 264.5Q425 271 426 274Q427 274 427 287Q427 300 427 308Q427 312 427 319Q427 326 427 333Q427 340 426.5 345.5Q426 351 426 352Q426 357 422.0 371.5Q418 386 416 391Q415 394 407.5 405.0Q400 416 397 420Q395 422 390.5 426.5Q386 431 381.5 436.0Q377 441 372.5 445.0Q368 449 367 450Q365 452 358.0 456.0Q351 460 343.5 464.5Q336 469 329.0 473.0Q322 477 319 479Q315 479 305 479Q295 479 284.0 479.5Q273 480 263 480Q254 480 250 480Q243 480 232 480Q221 480 210.0 479.5Q199 479 191 479Q183 479 182 479Q180 479 173.0 478.0Q166 477 158.5 475.5Q151 474 143.5 472.0Q136 470 133.0 469.0Q130 468 122.5 464.5Q115 461 113 460Q109 457 101.5 449.5Q94 442 86.5 434.5Q79 427 72.5 420.0Q66 413 64 411Q63 409 60.0 403.5Q57 398 54.0 391.0Q51 384 48.5 378.0Q46 372 45.0 371.0Q44 370 39.5 366.5Q35 363 35 362Q34 359 32.5 350.5Q31 342 29.5 332.5Q28 323 26.5 314.5Q25 306 25 303Q25 302 25 294Q25 286 24.5 276.5Q24 267 24 257Q24 247 24 241ZM112 357Q112 360 112.5 365.5Q113 371 113 371Q113 373 117.0 380.5Q121 388 123 391Q124 393 127.5 396.5Q131 400 133 401Q138 402 150.5 403.5Q163 405 177.0 406.5Q191 408 203.5 409.5Q216 411 221 411H246H270Q274 411 282.5 409.5Q291 408 300.5 406.5Q310 405 318.0 403.5Q326 402 328 401Q329 401 332.5 397.0Q336 393 338 391Q340 388 343.0 383.5Q346 379 349.5 374.5Q353 370 355.5 366.0Q358 362 358 362Q358 361 358.5 355.5Q359 350 359 348Q359 345 358.5 339.0Q358 333 358 332Q357 330 353.5 322.5Q350 315 348 313Q343 312 332.0 310.0Q321 308 309.0 306.5Q297 305 285.5 304.0Q274 303 270 303Q265 303 248.0 304.5Q231 306 211.0 307.5Q191 309 173.5 311.0Q156 313 152 313Q151 313 146.5 312.5Q142 312 137 312Q132 312 128 312Q124 312 123 313Q121 314 117.5 325.5Q114 337 113 342Q113 343 112.5 348.5Q112 354 112 357Z" transform="translate(1711,0)"/>
  <path d="M21 50Q21 45 21.5 38.0Q22 31 22 30Q22 29 26.0 25.5Q30 22 32 20Q35 18 39.5 15.0Q44 12 48.5 9.0Q53 6 57.0 3.5Q61 1 61 1Q63 1 70 1Q77 1 85 1Q94 1 101 1Q108 1 110 1Q114 1 131.5 -0.5Q149 -2 169.0 -4.0Q189 -6 206.0 -7.5Q223 -9 227 -9H232H237Q242 -8 251.5 -6.5Q261 -5 270.5 -3.5Q280 -2 287.0 -0.5Q294 1 296 1Q298 1 305.5 5.0Q313 9 315 11Q317 12 321.0 15.5Q325 19 325 20Q325 21 325.5 29.0Q326 37 326 41Q326 45 325.5 52.0Q325 59 325 59Q324 61 317.0 68.5Q310 76 305 79Q303 81 295.5 84.5Q288 88 286 89Q284 89 275.0 88.5Q266 88 256 88Q247 88 238 88Q229 88 227 89Q222 90 215.0 97.5Q208 105 208 108V323Q208 326 211.5 333.5Q215 341 219.5 348.5Q224 356 229.0 363.0Q234 370 237 372Q237 372 244.0 373.5Q251 375 260.5 376.5Q270 378 280.0 379.5Q290 381 296 382H301H305Q309 381 315.5 379.5Q322 378 328.0 376.5Q334 375 339.0 373.5Q344 372 344 372Q345 371 349.5 367.0Q354 363 359.0 357.5Q364 352 368.5 348.0Q373 344 374.0 343.0Q375 342 382.5 338.5Q390 335 393 333Q399 331 410.5 327.0Q422 323 423 323Q426 324 433.0 331.5Q440 339 442 343Q443 343 443 348Q443 354 443 357Q443 360 443 365Q443 371 442 372Q440 377 432.5 388.0Q425 399 423 401Q421 402 415.5 403.5Q410 405 403.0 406.5Q396 408 390.5 409.5Q385 411 384 411Q382 412 378.5 416.0Q375 420 374 421Q369 423 357.5 427.0Q346 431 344 431H178Q176 429 168.5 425.0Q161 421 159 421Q157 421 149.0 426.0Q141 431 139 431Q138 431 125.0 431.5Q112 432 105 432Q101 432 88.0 431.5Q75 431 71 431Q68 429 60.5 421.5Q53 414 51 411Q51 411 50.5 409.0Q50 407 50 406Q50 405 50.5 403.5Q51 402 51 401Q53 399 60.5 395.5Q68 392 71 392Q72 392 78 392Q84 392 90 392Q97 392 102 392Q108 392 110 392Q113 390 120.5 383.0Q128 376 129 372Q130 367 130 352Q130 338 130 333Q130 325 130 310Q130 296 129 294Q129 291 127.5 279.5Q126 268 124.5 255.0Q123 242 121.5 230.5Q120 219 120 216Q120 212 121.5 197.5Q123 183 124.5 166.5Q126 150 127.5 136.0Q129 122 129 118Q130 117 130 110Q130 104 130 102Q130 99 130 94Q130 89 129 89Q129 87 125.5 83.5Q122 80 120 79H115H110Q108 79 101.0 80.5Q94 82 85.5 84.0Q77 86 70.0 87.5Q63 89 61 89H56H51Q49 88 41.5 84.5Q34 81 32.0 79.0Q30 77 26.0 73.5Q22 70 22 69Q22 68 21.5 61.0Q21 54 21 50Z" transform="translate(2162,0)"/>
</g>
<g transform="translate(13,-13)">
  <g fill="#744b16" stroke="#744b16" stroke-width="14" stroke-linejoin="round" transform="translate(2612.6,0) scale(1.3)">
    <path d="M20 112Q20 107 20.5 90.5Q21 74 22 69Q22 66 23.5 59.5Q25 53 26.5 46.5Q28 40 29.5 35.0Q31 30 32 29Q34 26 39.5 19.5Q45 13 51.5 7.0Q58 1 63.5 -4.0Q69 -9 71 -10Q74 -11 87.0 -14.0Q100 -17 115.5 -20.0Q131 -23 146.0 -25.5Q161 -28 169 -29Q172 -29 185 -29Q198 -29 213 -29Q228 -29 241 -29Q254 -29 257 -29Q258 -29 262.5 -30.5Q267 -32 271.5 -34.0Q276 -36 280.5 -37.5Q285 -39 286 -39Q289 -39 297.0 -36.5Q305 -34 314.5 -30.5Q324 -27 332.5 -24.0Q341 -21 345 -19Q346 -19 351.0 -15.0Q356 -11 362.0 -6.5Q368 -2 374.5 2.5Q381 7 384 10Q387 12 394.5 19.5Q402 27 404.0 29.0Q406 31 409.5 39.0Q413 47 413 49Q414 52 416.0 59.5Q418 67 419.5 75.0Q421 83 422.0 89.5Q423 96 423 98Q423 99 423 107Q423 115 423.5 125.0Q424 135 424 145Q424 156 424 162Q424 168 424 178Q424 189 423.5 199.0Q423 209 423 216Q423 224 423 225Q423 228 422.0 234.0Q421 240 419.5 246.0Q418 252 416.0 257.0Q414 262 413 264Q413 265 409.0 269.5Q405 274 400.5 278.5Q396 283 391.5 287.5Q387 292 384 294Q382 295 374.0 298.5Q366 302 364 303Q362 305 354.5 313.0Q347 321 345.0 323.0Q343 325 335.5 328.5Q328 332 325 333Q320 335 305.5 338.5Q291 342 286 343Q281 343 269.0 344.5Q257 346 243.0 347.5Q229 349 216.5 350.5Q204 352 198 352Q196 352 190 352Q185 352 178 352Q172 352 166 352Q160 352 159 352Q157 352 151.5 353.5Q146 355 140.0 356.5Q134 358 128.5 359.5Q123 361 120 362Q116 364 108.5 367.5Q101 371 100.0 372.0Q99 373 96.5 378.5Q94 384 90.5 391.0Q87 398 84.5 403.5Q82 409 81 411Q80 412 75.5 416.0Q71 420 71 421Q71 421 72.0 425.0Q73 429 74.5 433.5Q76 438 78.0 442.5Q80 447 81 450Q82 452 86.0 460.0Q90 468 90 470Q91 471 92.0 475.5Q93 480 94.5 485.0Q96 490 97.5 494.0Q99 498 100 499Q103 502 111.5 508.5Q120 515 129.5 521.0Q139 527 147.5 532.0Q156 537 159 538Q160 539 170 539Q180 539 185 539Q191 539 203 539Q216 539 218 538Q219 538 223.5 536.5Q228 535 232.5 533.5Q237 532 241.5 530.5Q246 529 247 529Q248 529 254 529Q260 529 266 529Q273 529 278 529Q284 529 286 529Q290 528 301.5 524.5Q313 521 316 519Q318 517 325.5 509.0Q333 501 335 499Q338 496 344.5 491.0Q351 486 357.0 481.5Q363 477 368.0 473.5Q373 470 374 470Q375 470 380.0 469.5Q385 469 388 469Q391 469 397.0 469.5Q403 470 404 470Q406 470 409.5 474.0Q413 478 413 480Q414 481 414.5 491.0Q415 501 415 506Q415 511 414.5 519.5Q414 528 413 529Q413 530 405.5 537.5Q398 545 394 548L364 568Q362 569 354.5 577.5Q347 586 345 587Q343 589 336.0 592.0Q329 595 325.0 597.0Q321 599 310.0 602.5Q299 606 296 607H292H286Q283 607 268.5 605.5Q254 604 237.5 602.0Q221 600 206.5 598.5Q192 597 188 597Q186 597 177 597Q169 597 159 597Q149 597 140 597Q132 597 130 597Q129 597 125.5 596.0Q122 595 117.0 593.5Q112 592 107.5 590.0Q103 588 100 587Q96 585 88.5 581.5Q81 578 81 577Q80 576 81.0 568.0Q82 560 81.0 558.0Q80 556 71.5 552.5Q63 549 61.0 548.0Q59 547 55.5 543.5Q52 540 51 538Q49 534 45.5 522.5Q42 511 42 509Q42 508 41.5 501.5Q41 495 41 487Q41 479 41 470Q41 461 41 456Q41 451 41 442Q41 433 41 424Q41 416 41.5 409.0Q42 402 42 401Q42 396 43.0 387.5Q44 379 45.5 369.5Q47 360 48.5 352.5Q50 345 51 343Q52 340 56.0 334.5Q60 329 65.0 322.5Q70 316 74.5 310.5Q79 305 81 303Q82 303 86.0 301.5Q90 300 95.0 298.5Q100 297 104.5 295.5Q109 294 110 294L130 284Q133 283 139.5 281.5Q146 280 154.0 278.5Q162 277 169.0 275.5Q176 274 179 274Q180 274 185 274Q191 274 198 274Q205 274 210 274Q216 274 218 274Q220 274 227.5 269.0Q235 264 237 264Q238 264 242.5 265.5Q247 267 252.0 269.0Q257 271 261.5 272.5Q266 274 267 274Q271 274 278.5 271.5Q286 269 293.5 266.0Q301 263 307.5 259.5Q314 256 316 255Q317 253 320.5 246.5Q324 240 327.0 232.5Q330 225 332.5 217.5Q335 210 335 206Q335 204 335.5 190.0Q336 176 336 168Q336 160 335.5 144.5Q335 129 335 127Q335 125 331.0 117.5Q327 110 325.0 108.0Q323 106 316.0 98.0Q309 90 306 88Q302 85 295.5 80.0Q289 75 283.0 70.5Q277 66 272.0 62.5Q267 59 267 59H159Q157 61 149.5 64.5Q142 68 139 69Q138 69 134 69Q130 69 125 69Q120 69 115 69Q111 69 110 69Q109 69 104.0 71.5Q99 74 93.0 77.0Q87 80 80.5 83.0Q74 86 71 88Q70 89 65.5 92.0Q61 95 56.5 98.0Q52 101 47.5 104.0Q43 107 42 108Q40 109 31.0 110.5Q22 112 20 112Z" transform="translate(0,0)"/>
    <path d="M24 190Q24 182 24.5 169.5Q25 157 25 156Q25 154 29.0 146.5Q33 139 37.5 129.5Q42 120 46.5 111.0Q51 102 54 98Q56 95 63.5 87.5Q71 80 74.0 78.0Q77 76 85.5 71.5Q94 67 103.5 62.5Q113 58 121.0 54.0Q129 50 132.0 49.0Q135 48 141.5 46.0Q148 44 156.0 42.5Q164 41 171.0 40.0Q178 39 181 39Q182 39 189 39Q196 39 205.5 38.5Q215 38 224 38Q234 38 240 38Q246 38 255 38Q265 38 274.0 38.5Q283 39 290 39Q298 39 299 39Q302 39 310.5 40.5Q319 42 328.5 43.5Q338 45 346.0 46.5Q354 48 357 49Q359 50 365.0 52.5Q371 55 377.0 58.0Q383 61 388.5 63.5Q394 66 396 68Q401 71 412.0 82.5Q423 94 426 98Q426 99 427.5 103.0Q429 107 430.5 112.0Q432 117 433.5 121.5Q435 126 435 127Q436 129 440.5 136.5Q445 144 445 146Q445 147 445.5 151.0Q446 155 446 157Q446 159 445.5 162.5Q445 166 445 166Q443 168 438.0 172.0Q433 176 427.0 180.5Q421 185 415.0 189.0Q409 193 406 195Q406 196 402 196Q399 196 397 196Q395 196 391 196Q387 196 387 195Q384 194 378.5 191.5Q373 189 366.5 186.0Q360 183 354.5 180.0Q349 177 347 176Q346 175 342.0 170.5Q338 166 333.0 161.0Q328 156 323.5 151.5Q319 147 318 146Q318 146 313.0 145.0Q308 144 302.0 142.5Q296 141 289.5 139.5Q283 138 279 137Q279 137 277.0 136.5Q275 136 274 136Q273 136 271.5 136.5Q270 137 269 137Q268 137 263.5 138.5Q259 140 254.5 141.5Q250 143 245.5 144.5Q241 146 240 146Q240 147 238 147Q236 147 235 147Q231 147 230 146Q229 146 224.5 144.5Q220 143 215.5 141.5Q211 140 206.5 138.5Q202 137 201 137Q198 137 191.0 138.0Q184 139 176.0 140.5Q168 142 161.5 143.5Q155 145 152 146Q151 147 148.5 150.0Q146 153 142.5 156.5Q139 160 136.0 163.0Q133 166 132 166Q132 167 128.0 166.5Q124 166 123 166Q121 168 117.0 171.0Q113 174 113 176V352Q113 352 114.0 356.0Q115 360 116.5 364.5Q118 369 120.0 373.5Q122 378 123 381Q125 385 128.5 392.5Q132 400 132 401Q135 403 146.0 406.5Q157 410 162 410Q163 410 170.0 410.5Q177 411 186 411Q195 411 204 411Q214 411 220 411Q226 411 235 411Q245 411 254 411Q264 411 271.0 410.5Q278 410 279 410Q283 410 290.5 409.0Q298 408 305.5 406.5Q313 405 319.5 403.5Q326 402 328 401Q329 400 333.5 396.0Q338 392 343.0 386.5Q348 381 352.0 376.5Q356 372 357 371Q359 369 363.5 366.0Q368 363 373.0 360.0Q378 357 382.0 354.5Q386 352 387 352Q387 351 393 351Q399 351 402 351Q404 351 409 351Q415 351 416 352Q419 354 426.5 361.0Q434 368 435 371Q436 372 436 378Q436 385 436 389Q436 394 436 401Q436 409 435 410Q435 413 431.5 420.5Q428 428 426.0 430.0Q424 432 417.0 437.5Q410 443 402.5 449.5Q395 456 387.5 461.5Q380 467 377 469Q376 470 372.0 469.5Q368 469 367 469Q365 470 359.5 473.0Q354 476 347.5 479.0Q341 482 335.0 485.0Q329 488 328 489Q325 490 313.5 493.5Q302 497 299 498Q298 498 296.5 498.5Q295 499 293 499Q292 499 290.5 498.5Q289 498 289 498Q288 498 284.0 493.5Q280 489 279 489Q279 488 275 488Q274 488 272 488Q270 488 269 489Q266 489 251.5 490.5Q237 492 220.5 493.5Q204 495 189.5 496.5Q175 498 172 498H166H162Q160 497 152.0 493.5Q144 490 142.0 489.0Q140 488 134.0 483.0Q128 478 120.0 471.5Q112 465 104.5 458.5Q97 452 93 449Q92 449 88.5 444.5Q85 440 84 440Q82 438 74.0 434.5Q66 431 64 430Q61 428 53.5 420.0Q46 412 45 410Q43 407 39.0 396.0Q35 385 35 381Q34 375 32.5 355.5Q31 336 29.5 312.5Q28 289 26.5 267.0Q25 245 25 234Q25 233 25 227Q25 222 24.5 215.0Q24 208 24 201Q24 194 24 190Z" transform="translate(447,0)"/>
    <path d="M21 193Q21 188 21 180Q21 173 21.5 165.5Q22 158 22 152Q22 147 22 146Q22 144 26.5 136.0Q31 128 32 126Q32 125 31.5 116.5Q31 108 32 107Q33 105 38.0 101.0Q43 97 49.0 92.5Q55 88 61.5 83.5Q68 79 71 78Q73 76 85.5 72.5Q98 69 100.0 68.0Q102 67 110.0 63.5Q118 60 120 58H296Q298 59 303.5 62.5Q309 66 315.0 69.0Q321 72 326.5 74.5Q332 77 335 78Q336 78 345.0 78.5Q354 79 359 79Q364 79 373.5 78.5Q383 78 384 78Q385 77 388.5 72.5Q392 68 394 68Q394 68 403.5 67.5Q413 67 418 67Q423 67 432.5 67.5Q442 68 442 68Q444 68 448.0 72.0Q452 76 452 78Q452 81 451.0 87.5Q450 94 448.5 102.0Q447 110 445.0 116.5Q443 123 442 126Q442 127 439.0 131.5Q436 136 432.5 141.0Q429 146 426.0 150.0Q423 154 423 156Q422 159 420.5 168.0Q419 177 417.5 188.0Q416 199 414.5 209.0Q413 219 413 224Q413 229 413 249Q413 270 413 293Q413 316 413 336Q413 356 413 361Q413 362 410.5 369.5Q408 377 405.0 386.0Q402 395 399.0 404.5Q396 414 394 420Q392 423 388.5 430.5Q385 438 384 439Q381 443 369.5 454.5Q358 466 354 469Q352 471 344.5 474.5Q337 478 335 478Q330 479 320.0 481.0Q310 483 299.0 484.5Q288 486 278.5 487.0Q269 488 266 488Q264 488 258.5 486.5Q253 485 246.5 483.5Q240 482 234.0 480.0Q228 478 227 478Q225 478 216 478Q208 478 198 478Q188 478 179 478Q171 478 169 478Q167 478 159.0 473.5Q151 469 149 469Q134 464 119.0 461.5Q104 459 90 449L71 430Q70 428 67.0 422.5Q64 417 61.0 411.0Q58 405 55.0 399.0Q52 393 51 390V385V381Q53 377 61.0 370.0Q69 363 71 361Q71 361 75.0 360.5Q79 360 81 360Q83 360 86.5 360.5Q90 361 90 361Q92 362 99.5 369.5Q107 377 110 381Q111 382 114.5 390.5Q118 399 120 400Q123 404 134.0 415.5Q145 427 149 430H193H237Q238 430 244.0 428.5Q250 427 257.5 425.5Q265 424 273.0 422.5Q281 421 286.0 420.0Q291 419 301.0 416.5Q311 414 317.5 412.0Q324 410 325 410Q327 408 330.0 403.0Q333 398 336.5 392.0Q340 386 342.5 380.0Q345 374 345 371Q345 368 341.0 356.5Q337 345 335 342Q334 341 327.0 337.5Q320 334 315 332Q313 331 300.5 327.0Q288 323 286 322Q285 321 280.5 318.0Q276 315 271.5 312.0Q267 309 262.5 306.0Q258 303 257 302H252H247Q246 302 241.5 304.0Q237 306 232.5 307.5Q228 309 223.5 310.5Q219 312 218 312Q217 312 211.5 312.5Q206 313 199 313Q192 313 185 313Q179 313 175 313Q167 313 153 313Q140 313 139 312Q137 312 128.5 307.5Q120 303 110.0 298.0Q100 293 91.5 288.5Q83 284 81 283L51 273Q50 273 46.5 269.0Q43 265 42 263Q37 258 29.5 246.5Q22 235 22 234Q22 234 22 229Q22 224 21.5 217.5Q21 211 21 204Q21 197 21 193ZM81 166Q81 168 81.5 173.5Q82 179 83.5 185.0Q85 191 87.0 196.5Q89 202 90 205Q91 207 95.5 211.5Q100 216 104.5 220.5Q109 225 113.5 229.0Q118 233 120 234Q121 235 126.0 236.5Q131 238 137.5 239.5Q144 241 150.0 242.5Q156 244 159 244Q163 244 180.0 245.5Q197 247 217.0 248.5Q237 250 256.5 251.5Q276 253 286 254H309H325Q329 252 336.0 244.5Q343 237 345 234Q345 233 345.5 226.0Q346 219 346 215Q346 211 345.5 203.5Q345 196 345 195Q344 193 341.5 186.5Q339 180 336.0 172.0Q333 164 330.0 156.5Q327 149 325 146Q325 145 321.0 141.5Q317 138 315 136Q311 133 304.5 128.0Q298 123 292.0 118.5Q286 114 281.0 110.5Q276 107 276 107Q275 107 270.5 108.0Q266 109 261.5 111.0Q257 113 252.5 115.0Q248 117 247 117H237H227Q226 117 221.5 115.0Q217 113 212.5 111.5Q208 110 203.5 108.5Q199 107 198 107Q197 107 191.5 106.5Q186 106 183 106Q180 106 174.5 106.5Q169 107 169 107Q167 107 159.5 111.0Q152 115 149 117Q148 117 144.5 121.5Q141 126 139 126Q138 127 134.0 126.5Q130 126 130 126Q124 128 113.0 131.5Q102 135 100 136Q96 139 88.5 150.5Q81 162 81 166Z" transform="translate(915,0)"/>
    <path d="M340 115V68Q340 66 342.5 60.0Q345 54 348.0 46.0Q351 38 354.5 30.5Q358 23 360 19Q361 17 364.5 13.0Q368 9 370 9Q371 9 379.0 8.5Q387 8 391 8Q395 8 401.5 8.5Q408 9 409 9Q410 9 412.5 13.0Q415 17 418.0 21.5Q421 26 424.0 30.5Q427 35 428 38Q430 43 434.0 54.5Q438 66 438 68V322Q438 324 434.0 335.0Q430 346 428 352Q427 354 423.5 361.5Q420 369 419 371Q415 377 408.0 388.0Q401 399 399 401Q398 402 389.5 405.5Q381 409 379.0 410.0Q377 411 371.5 415.5Q366 420 359.5 425.5Q353 431 347.5 435.0Q342 439 340 440Q339 440 335 440Q331 440 326 440Q321 440 316 440Q312 440 311 440Q309 440 301.0 444.5Q293 449 291 450Q290 450 286.5 449.5Q283 449 282 450Q280 450 271.0 451.5Q262 453 252.5 454.5Q243 456 234.0 457.5Q225 459 223 459Q221 460 212 460Q203 460 198 460Q193 460 184 460Q175 460 174 459Q172 459 166.5 457.5Q161 456 154.5 454.5Q148 453 142.0 451.5Q136 450 135 450Q134 449 130 449Q125 449 125 450Q123 450 115.0 454.5Q107 459 105 459Q104 460 96.0 460.5Q88 461 83 461Q79 461 72.5 460.5Q66 460 66 459Q66 459 62.0 447.5Q58 436 56 430Q54 422 51.0 409.0Q48 396 45.0 383.5Q42 371 39.5 362.0Q37 353 37 352Q36 345 36 319Q36 293 36.5 263.5Q37 234 37 208Q37 182 37 175Q37 173 35.5 166.0Q34 159 32.0 151.0Q30 143 28.5 135.5Q27 128 27 126Q27 125 26.5 110.0Q26 95 26 87Q26 82 26.5 67.5Q27 53 27 48Q29 46 36.5 38.5Q44 31 47 29Q49 27 56.5 23.0Q64 19 66 19Q68 19 75.5 23.0Q83 27 86 29Q88 31 95.5 38.5Q103 46 105 48Q107 53 110.0 67.0Q113 81 116.5 96.5Q120 112 122.5 126.0Q125 140 125 146Q125 152 125 178Q125 204 125 234Q125 264 125 290Q125 316 125 322Q125 326 129.0 341.0Q133 356 135 361Q136 363 139.0 366.5Q142 370 144 371Q149 373 164.0 376.5Q179 380 184 381Q185 381 192 381Q200 381 208 381Q216 381 223 381Q231 381 233 381Q237 381 248.0 382.5Q259 384 271.5 385.5Q284 387 295.0 388.5Q306 390 311 391Q313 390 317.5 386.0Q322 382 326.5 377.0Q331 372 335.0 367.5Q339 363 340.0 361.0Q341 359 343.0 352.5Q345 346 346.5 338.0Q348 330 349.0 323.0Q350 316 350 313Q350 308 348.5 287.5Q347 267 345.5 244.0Q344 221 342.0 200.5Q340 180 340 175Z" transform="translate(1388,0)"/>
  </g>
</g>
<g transform="translate(-11,11)">
  <g fill="#f4cfa0" stroke="#f4cfa0" stroke-width="14" stroke-linejoin="round" transform="translate(2612.6,0) scale(1.3)">
    <path d="M20 112Q20 107 20.5 90.5Q21 74 22 69Q22 66 23.5 59.5Q25 53 26.5 46.5Q28 40 29.5 35.0Q31 30 32 29Q34 26 39.5 19.5Q45 13 51.5 7.0Q58 1 63.5 -4.0Q69 -9 71 -10Q74 -11 87.0 -14.0Q100 -17 115.5 -20.0Q131 -23 146.0 -25.5Q161 -28 169 -29Q172 -29 185 -29Q198 -29 213 -29Q228 -29 241 -29Q254 -29 257 -29Q258 -29 262.5 -30.5Q267 -32 271.5 -34.0Q276 -36 280.5 -37.5Q285 -39 286 -39Q289 -39 297.0 -36.5Q305 -34 314.5 -30.5Q324 -27 332.5 -24.0Q341 -21 345 -19Q346 -19 351.0 -15.0Q356 -11 362.0 -6.5Q368 -2 374.5 2.5Q381 7 384 10Q387 12 394.5 19.5Q402 27 404.0 29.0Q406 31 409.5 39.0Q413 47 413 49Q414 52 416.0 59.5Q418 67 419.5 75.0Q421 83 422.0 89.5Q423 96 423 98Q423 99 423 107Q423 115 423.5 125.0Q424 135 424 145Q424 156 424 162Q424 168 424 178Q424 189 423.5 199.0Q423 209 423 216Q423 224 423 225Q423 228 422.0 234.0Q421 240 419.5 246.0Q418 252 416.0 257.0Q414 262 413 264Q413 265 409.0 269.5Q405 274 400.5 278.5Q396 283 391.5 287.5Q387 292 384 294Q382 295 374.0 298.5Q366 302 364 303Q362 305 354.5 313.0Q347 321 345.0 323.0Q343 325 335.5 328.5Q328 332 325 333Q320 335 305.5 338.5Q291 342 286 343Q281 343 269.0 344.5Q257 346 243.0 347.5Q229 349 216.5 350.5Q204 352 198 352Q196 352 190 352Q185 352 178 352Q172 352 166 352Q160 352 159 352Q157 352 151.5 353.5Q146 355 140.0 356.5Q134 358 128.5 359.5Q123 361 120 362Q116 364 108.5 367.5Q101 371 100.0 372.0Q99 373 96.5 378.5Q94 384 90.5 391.0Q87 398 84.5 403.5Q82 409 81 411Q80 412 75.5 416.0Q71 420 71 421Q71 421 72.0 425.0Q73 429 74.5 433.5Q76 438 78.0 442.5Q80 447 81 450Q82 452 86.0 460.0Q90 468 90 470Q91 471 92.0 475.5Q93 480 94.5 485.0Q96 490 97.5 494.0Q99 498 100 499Q103 502 111.5 508.5Q120 515 129.5 521.0Q139 527 147.5 532.0Q156 537 159 538Q160 539 170 539Q180 539 185 539Q191 539 203 539Q216 539 218 538Q219 538 223.5 536.5Q228 535 232.5 533.5Q237 532 241.5 530.5Q246 529 247 529Q248 529 254 529Q260 529 266 529Q273 529 278 529Q284 529 286 529Q290 528 301.5 524.5Q313 521 316 519Q318 517 325.5 509.0Q333 501 335 499Q338 496 344.5 491.0Q351 486 357.0 481.5Q363 477 368.0 473.5Q373 470 374 470Q375 470 380.0 469.5Q385 469 388 469Q391 469 397.0 469.5Q403 470 404 470Q406 470 409.5 474.0Q413 478 413 480Q414 481 414.5 491.0Q415 501 415 506Q415 511 414.5 519.5Q414 528 413 529Q413 530 405.5 537.5Q398 545 394 548L364 568Q362 569 354.5 577.5Q347 586 345 587Q343 589 336.0 592.0Q329 595 325.0 597.0Q321 599 310.0 602.5Q299 606 296 607H292H286Q283 607 268.5 605.5Q254 604 237.5 602.0Q221 600 206.5 598.5Q192 597 188 597Q186 597 177 597Q169 597 159 597Q149 597 140 597Q132 597 130 597Q129 597 125.5 596.0Q122 595 117.0 593.5Q112 592 107.5 590.0Q103 588 100 587Q96 585 88.5 581.5Q81 578 81 577Q80 576 81.0 568.0Q82 560 81.0 558.0Q80 556 71.5 552.5Q63 549 61.0 548.0Q59 547 55.5 543.5Q52 540 51 538Q49 534 45.5 522.5Q42 511 42 509Q42 508 41.5 501.5Q41 495 41 487Q41 479 41 470Q41 461 41 456Q41 451 41 442Q41 433 41 424Q41 416 41.5 409.0Q42 402 42 401Q42 396 43.0 387.5Q44 379 45.5 369.5Q47 360 48.5 352.5Q50 345 51 343Q52 340 56.0 334.5Q60 329 65.0 322.5Q70 316 74.5 310.5Q79 305 81 303Q82 303 86.0 301.5Q90 300 95.0 298.5Q100 297 104.5 295.5Q109 294 110 294L130 284Q133 283 139.5 281.5Q146 280 154.0 278.5Q162 277 169.0 275.5Q176 274 179 274Q180 274 185 274Q191 274 198 274Q205 274 210 274Q216 274 218 274Q220 274 227.5 269.0Q235 264 237 264Q238 264 242.5 265.5Q247 267 252.0 269.0Q257 271 261.5 272.5Q266 274 267 274Q271 274 278.5 271.5Q286 269 293.5 266.0Q301 263 307.5 259.5Q314 256 316 255Q317 253 320.5 246.5Q324 240 327.0 232.5Q330 225 332.5 217.5Q335 210 335 206Q335 204 335.5 190.0Q336 176 336 168Q336 160 335.5 144.5Q335 129 335 127Q335 125 331.0 117.5Q327 110 325.0 108.0Q323 106 316.0 98.0Q309 90 306 88Q302 85 295.5 80.0Q289 75 283.0 70.5Q277 66 272.0 62.5Q267 59 267 59H159Q157 61 149.5 64.5Q142 68 139 69Q138 69 134 69Q130 69 125 69Q120 69 115 69Q111 69 110 69Q109 69 104.0 71.5Q99 74 93.0 77.0Q87 80 80.5 83.0Q74 86 71 88Q70 89 65.5 92.0Q61 95 56.5 98.0Q52 101 47.5 104.0Q43 107 42 108Q40 109 31.0 110.5Q22 112 20 112Z" transform="translate(0,0)"/>
    <path d="M24 190Q24 182 24.5 169.5Q25 157 25 156Q25 154 29.0 146.5Q33 139 37.5 129.5Q42 120 46.5 111.0Q51 102 54 98Q56 95 63.5 87.5Q71 80 74.0 78.0Q77 76 85.5 71.5Q94 67 103.5 62.5Q113 58 121.0 54.0Q129 50 132.0 49.0Q135 48 141.5 46.0Q148 44 156.0 42.5Q164 41 171.0 40.0Q178 39 181 39Q182 39 189 39Q196 39 205.5 38.5Q215 38 224 38Q234 38 240 38Q246 38 255 38Q265 38 274.0 38.5Q283 39 290 39Q298 39 299 39Q302 39 310.5 40.5Q319 42 328.5 43.5Q338 45 346.0 46.5Q354 48 357 49Q359 50 365.0 52.5Q371 55 377.0 58.0Q383 61 388.5 63.5Q394 66 396 68Q401 71 412.0 82.5Q423 94 426 98Q426 99 427.5 103.0Q429 107 430.5 112.0Q432 117 433.5 121.5Q435 126 435 127Q436 129 440.5 136.5Q445 144 445 146Q445 147 445.5 151.0Q446 155 446 157Q446 159 445.5 162.5Q445 166 445 166Q443 168 438.0 172.0Q433 176 427.0 180.5Q421 185 415.0 189.0Q409 193 406 195Q406 196 402 196Q399 196 397 196Q395 196 391 196Q387 196 387 195Q384 194 378.5 191.5Q373 189 366.5 186.0Q360 183 354.5 180.0Q349 177 347 176Q346 175 342.0 170.5Q338 166 333.0 161.0Q328 156 323.5 151.5Q319 147 318 146Q318 146 313.0 145.0Q308 144 302.0 142.5Q296 141 289.5 139.5Q283 138 279 137Q279 137 277.0 136.5Q275 136 274 136Q273 136 271.5 136.5Q270 137 269 137Q268 137 263.5 138.5Q259 140 254.5 141.5Q250 143 245.5 144.5Q241 146 240 146Q240 147 238 147Q236 147 235 147Q231 147 230 146Q229 146 224.5 144.5Q220 143 215.5 141.5Q211 140 206.5 138.5Q202 137 201 137Q198 137 191.0 138.0Q184 139 176.0 140.5Q168 142 161.5 143.5Q155 145 152 146Q151 147 148.5 150.0Q146 153 142.5 156.5Q139 160 136.0 163.0Q133 166 132 166Q132 167 128.0 166.5Q124 166 123 166Q121 168 117.0 171.0Q113 174 113 176V352Q113 352 114.0 356.0Q115 360 116.5 364.5Q118 369 120.0 373.5Q122 378 123 381Q125 385 128.5 392.5Q132 400 132 401Q135 403 146.0 406.5Q157 410 162 410Q163 410 170.0 410.5Q177 411 186 411Q195 411 204 411Q214 411 220 411Q226 411 235 411Q245 411 254 411Q264 411 271.0 410.5Q278 410 279 410Q283 410 290.5 409.0Q298 408 305.5 406.5Q313 405 319.5 403.5Q326 402 328 401Q329 400 333.5 396.0Q338 392 343.0 386.5Q348 381 352.0 376.5Q356 372 357 371Q359 369 363.5 366.0Q368 363 373.0 360.0Q378 357 382.0 354.5Q386 352 387 352Q387 351 393 351Q399 351 402 351Q404 351 409 351Q415 351 416 352Q419 354 426.5 361.0Q434 368 435 371Q436 372 436 378Q436 385 436 389Q436 394 436 401Q436 409 435 410Q435 413 431.5 420.5Q428 428 426.0 430.0Q424 432 417.0 437.5Q410 443 402.5 449.5Q395 456 387.5 461.5Q380 467 377 469Q376 470 372.0 469.5Q368 469 367 469Q365 470 359.5 473.0Q354 476 347.5 479.0Q341 482 335.0 485.0Q329 488 328 489Q325 490 313.5 493.5Q302 497 299 498Q298 498 296.5 498.5Q295 499 293 499Q292 499 290.5 498.5Q289 498 289 498Q288 498 284.0 493.5Q280 489 279 489Q279 488 275 488Q274 488 272 488Q270 488 269 489Q266 489 251.5 490.5Q237 492 220.5 493.5Q204 495 189.5 496.5Q175 498 172 498H166H162Q160 497 152.0 493.5Q144 490 142.0 489.0Q140 488 134.0 483.0Q128 478 120.0 471.5Q112 465 104.5 458.5Q97 452 93 449Q92 449 88.5 444.5Q85 440 84 440Q82 438 74.0 434.5Q66 431 64 430Q61 428 53.5 420.0Q46 412 45 410Q43 407 39.0 396.0Q35 385 35 381Q34 375 32.5 355.5Q31 336 29.5 312.5Q28 289 26.5 267.0Q25 245 25 234Q25 233 25 227Q25 222 24.5 215.0Q24 208 24 201Q24 194 24 190Z" transform="translate(447,0)"/>
    <path d="M21 193Q21 188 21 180Q21 173 21.5 165.5Q22 158 22 152Q22 147 22 146Q22 144 26.5 136.0Q31 128 32 126Q32 125 31.5 116.5Q31 108 32 107Q33 105 38.0 101.0Q43 97 49.0 92.5Q55 88 61.5 83.5Q68 79 71 78Q73 76 85.5 72.5Q98 69 100.0 68.0Q102 67 110.0 63.5Q118 60 120 58H296Q298 59 303.5 62.5Q309 66 315.0 69.0Q321 72 326.5 74.5Q332 77 335 78Q336 78 345.0 78.5Q354 79 359 79Q364 79 373.5 78.5Q383 78 384 78Q385 77 388.5 72.5Q392 68 394 68Q394 68 403.5 67.5Q413 67 418 67Q423 67 432.5 67.5Q442 68 442 68Q444 68 448.0 72.0Q452 76 452 78Q452 81 451.0 87.5Q450 94 448.5 102.0Q447 110 445.0 116.5Q443 123 442 126Q442 127 439.0 131.5Q436 136 432.5 141.0Q429 146 426.0 150.0Q423 154 423 156Q422 159 420.5 168.0Q419 177 417.5 188.0Q416 199 414.5 209.0Q413 219 413 224Q413 229 413 249Q413 270 413 293Q413 316 413 336Q413 356 413 361Q413 362 410.5 369.5Q408 377 405.0 386.0Q402 395 399.0 404.5Q396 414 394 420Q392 423 388.5 430.5Q385 438 384 439Q381 443 369.5 454.5Q358 466 354 469Q352 471 344.5 474.5Q337 478 335 478Q330 479 320.0 481.0Q310 483 299.0 484.5Q288 486 278.5 487.0Q269 488 266 488Q264 488 258.5 486.5Q253 485 246.5 483.5Q240 482 234.0 480.0Q228 478 227 478Q225 478 216 478Q208 478 198 478Q188 478 179 478Q171 478 169 478Q167 478 159.0 473.5Q151 469 149 469Q134 464 119.0 461.5Q104 459 90 449L71 430Q70 428 67.0 422.5Q64 417 61.0 411.0Q58 405 55.0 399.0Q52 393 51 390V385V381Q53 377 61.0 370.0Q69 363 71 361Q71 361 75.0 360.5Q79 360 81 360Q83 360 86.5 360.5Q90 361 90 361Q92 362 99.5 369.5Q107 377 110 381Q111 382 114.5 390.5Q118 399 120 400Q123 404 134.0 415.5Q145 427 149 430H193H237Q238 430 244.0 428.5Q250 427 257.5 425.5Q265 424 273.0 422.5Q281 421 286.0 420.0Q291 419 301.0 416.5Q311 414 317.5 412.0Q324 410 325 410Q327 408 330.0 403.0Q333 398 336.5 392.0Q340 386 342.5 380.0Q345 374 345 371Q345 368 341.0 356.5Q337 345 335 342Q334 341 327.0 337.5Q320 334 315 332Q313 331 300.5 327.0Q288 323 286 322Q285 321 280.5 318.0Q276 315 271.5 312.0Q267 309 262.5 306.0Q258 303 257 302H252H247Q246 302 241.5 304.0Q237 306 232.5 307.5Q228 309 223.5 310.5Q219 312 218 312Q217 312 211.5 312.5Q206 313 199 313Q192 313 185 313Q179 313 175 313Q167 313 153 313Q140 313 139 312Q137 312 128.5 307.5Q120 303 110.0 298.0Q100 293 91.5 288.5Q83 284 81 283L51 273Q50 273 46.5 269.0Q43 265 42 263Q37 258 29.5 246.5Q22 235 22 234Q22 234 22 229Q22 224 21.5 217.5Q21 211 21 204Q21 197 21 193ZM81 166Q81 168 81.5 173.5Q82 179 83.5 185.0Q85 191 87.0 196.5Q89 202 90 205Q91 207 95.5 211.5Q100 216 104.5 220.5Q109 225 113.5 229.0Q118 233 120 234Q121 235 126.0 236.5Q131 238 137.5 239.5Q144 241 150.0 242.5Q156 244 159 244Q163 244 180.0 245.5Q197 247 217.0 248.5Q237 250 256.5 251.5Q276 253 286 254H309H325Q329 252 336.0 244.5Q343 237 345 234Q345 233 345.5 226.0Q346 219 346 215Q346 211 345.5 203.5Q345 196 345 195Q344 193 341.5 186.5Q339 180 336.0 172.0Q333 164 330.0 156.5Q327 149 325 146Q325 145 321.0 141.5Q317 138 315 136Q311 133 304.5 128.0Q298 123 292.0 118.5Q286 114 281.0 110.5Q276 107 276 107Q275 107 270.5 108.0Q266 109 261.5 111.0Q257 113 252.5 115.0Q248 117 247 117H237H227Q226 117 221.5 115.0Q217 113 212.5 111.5Q208 110 203.5 108.5Q199 107 198 107Q197 107 191.5 106.5Q186 106 183 106Q180 106 174.5 106.5Q169 107 169 107Q167 107 159.5 111.0Q152 115 149 117Q148 117 144.5 121.5Q141 126 139 126Q138 127 134.0 126.5Q130 126 130 126Q124 128 113.0 131.5Q102 135 100 136Q96 139 88.5 150.5Q81 162 81 166Z" transform="translate(915,0)"/>
    <path d="M340 115V68Q340 66 342.5 60.0Q345 54 348.0 46.0Q351 38 354.5 30.5Q358 23 360 19Q361 17 364.5 13.0Q368 9 370 9Q371 9 379.0 8.5Q387 8 391 8Q395 8 401.5 8.5Q408 9 409 9Q410 9 412.5 13.0Q415 17 418.0 21.5Q421 26 424.0 30.5Q427 35 428 38Q430 43 434.0 54.5Q438 66 438 68V322Q438 324 434.0 335.0Q430 346 428 352Q427 354 423.5 361.5Q420 369 419 371Q415 377 408.0 388.0Q401 399 399 401Q398 402 389.5 405.5Q381 409 379.0 410.0Q377 411 371.5 415.5Q366 420 359.5 425.5Q353 431 347.5 435.0Q342 439 340 440Q339 440 335 440Q331 440 326 440Q321 440 316 440Q312 440 311 440Q309 440 301.0 444.5Q293 449 291 450Q290 450 286.5 449.5Q283 449 282 450Q280 450 271.0 451.5Q262 453 252.5 454.5Q243 456 234.0 457.5Q225 459 223 459Q221 460 212 460Q203 460 198 460Q193 460 184 460Q175 460 174 459Q172 459 166.5 457.5Q161 456 154.5 454.5Q148 453 142.0 451.5Q136 450 135 450Q134 449 130 449Q125 449 125 450Q123 450 115.0 454.5Q107 459 105 459Q104 460 96.0 460.5Q88 461 83 461Q79 461 72.5 460.5Q66 460 66 459Q66 459 62.0 447.5Q58 436 56 430Q54 422 51.0 409.0Q48 396 45.0 383.5Q42 371 39.5 362.0Q37 353 37 352Q36 345 36 319Q36 293 36.5 263.5Q37 234 37 208Q37 182 37 175Q37 173 35.5 166.0Q34 159 32.0 151.0Q30 143 28.5 135.5Q27 128 27 126Q27 125 26.5 110.0Q26 95 26 87Q26 82 26.5 67.5Q27 53 27 48Q29 46 36.5 38.5Q44 31 47 29Q49 27 56.5 23.0Q64 19 66 19Q68 19 75.5 23.0Q83 27 86 29Q88 31 95.5 38.5Q103 46 105 48Q107 53 110.0 67.0Q113 81 116.5 96.5Q120 112 122.5 126.0Q125 140 125 146Q125 152 125 178Q125 204 125 234Q125 264 125 290Q125 316 125 322Q125 326 129.0 341.0Q133 356 135 361Q136 363 139.0 366.5Q142 370 144 371Q149 373 164.0 376.5Q179 380 184 381Q185 381 192 381Q200 381 208 381Q216 381 223 381Q231 381 233 381Q237 381 248.0 382.5Q259 384 271.5 385.5Q284 387 295.0 388.5Q306 390 311 391Q313 390 317.5 386.0Q322 382 326.5 377.0Q331 372 335.0 367.5Q339 363 340.0 361.0Q341 359 343.0 352.5Q345 346 346.5 338.0Q348 330 349.0 323.0Q350 316 350 313Q350 308 348.5 287.5Q347 267 345.5 244.0Q344 221 342.0 200.5Q340 180 340 175Z" transform="translate(1388,0)"/>
  </g>
</g>
<g fill="#e8962c" stroke="#e8962c" stroke-width="14" stroke-linejoin="round" transform="translate(2612.6,0) scale(1.3)">
  <path d="M20 112Q20 107 20.5 90.5Q21 74 22 69Q22 66 23.5 59.5Q25 53 26.5 46.5Q28 40 29.5 35.0Q31 30 32 29Q34 26 39.5 19.5Q45 13 51.5 7.0Q58 1 63.5 -4.0Q69 -9 71 -10Q74 -11 87.0 -14.0Q100 -17 115.5 -20.0Q131 -23 146.0 -25.5Q161 -28 169 -29Q172 -29 185 -29Q198 -29 213 -29Q228 -29 241 -29Q254 -29 257 -29Q258 -29 262.5 -30.5Q267 -32 271.5 -34.0Q276 -36 280.5 -37.5Q285 -39 286 -39Q289 -39 297.0 -36.5Q305 -34 314.5 -30.5Q324 -27 332.5 -24.0Q341 -21 345 -19Q346 -19 351.0 -15.0Q356 -11 362.0 -6.5Q368 -2 374.5 2.5Q381 7 384 10Q387 12 394.5 19.5Q402 27 404.0 29.0Q406 31 409.5 39.0Q413 47 413 49Q414 52 416.0 59.5Q418 67 419.5 75.0Q421 83 422.0 89.5Q423 96 423 98Q423 99 423 107Q423 115 423.5 125.0Q424 135 424 145Q424 156 424 162Q424 168 424 178Q424 189 423.5 199.0Q423 209 423 216Q423 224 423 225Q423 228 422.0 234.0Q421 240 419.5 246.0Q418 252 416.0 257.0Q414 262 413 264Q413 265 409.0 269.5Q405 274 400.5 278.5Q396 283 391.5 287.5Q387 292 384 294Q382 295 374.0 298.5Q366 302 364 303Q362 305 354.5 313.0Q347 321 345.0 323.0Q343 325 335.5 328.5Q328 332 325 333Q320 335 305.5 338.5Q291 342 286 343Q281 343 269.0 344.5Q257 346 243.0 347.5Q229 349 216.5 350.5Q204 352 198 352Q196 352 190 352Q185 352 178 352Q172 352 166 352Q160 352 159 352Q157 352 151.5 353.5Q146 355 140.0 356.5Q134 358 128.5 359.5Q123 361 120 362Q116 364 108.5 367.5Q101 371 100.0 372.0Q99 373 96.5 378.5Q94 384 90.5 391.0Q87 398 84.5 403.5Q82 409 81 411Q80 412 75.5 416.0Q71 420 71 421Q71 421 72.0 425.0Q73 429 74.5 433.5Q76 438 78.0 442.5Q80 447 81 450Q82 452 86.0 460.0Q90 468 90 470Q91 471 92.0 475.5Q93 480 94.5 485.0Q96 490 97.5 494.0Q99 498 100 499Q103 502 111.5 508.5Q120 515 129.5 521.0Q139 527 147.5 532.0Q156 537 159 538Q160 539 170 539Q180 539 185 539Q191 539 203 539Q216 539 218 538Q219 538 223.5 536.5Q228 535 232.5 533.5Q237 532 241.5 530.5Q246 529 247 529Q248 529 254 529Q260 529 266 529Q273 529 278 529Q284 529 286 529Q290 528 301.5 524.5Q313 521 316 519Q318 517 325.5 509.0Q333 501 335 499Q338 496 344.5 491.0Q351 486 357.0 481.5Q363 477 368.0 473.5Q373 470 374 470Q375 470 380.0 469.5Q385 469 388 469Q391 469 397.0 469.5Q403 470 404 470Q406 470 409.5 474.0Q413 478 413 480Q414 481 414.5 491.0Q415 501 415 506Q415 511 414.5 519.5Q414 528 413 529Q413 530 405.5 537.5Q398 545 394 548L364 568Q362 569 354.5 577.5Q347 586 345 587Q343 589 336.0 592.0Q329 595 325.0 597.0Q321 599 310.0 602.5Q299 606 296 607H292H286Q283 607 268.5 605.5Q254 604 237.5 602.0Q221 600 206.5 598.5Q192 597 188 597Q186 597 177 597Q169 597 159 597Q149 597 140 597Q132 597 130 597Q129 597 125.5 596.0Q122 595 117.0 593.5Q112 592 107.5 590.0Q103 588 100 587Q96 585 88.5 581.5Q81 578 81 577Q80 576 81.0 568.0Q82 560 81.0 558.0Q80 556 71.5 552.5Q63 549 61.0 548.0Q59 547 55.5 543.5Q52 540 51 538Q49 534 45.5 522.5Q42 511 42 509Q42 508 41.5 501.5Q41 495 41 487Q41 479 41 470Q41 461 41 456Q41 451 41 442Q41 433 41 424Q41 416 41.5 409.0Q42 402 42 401Q42 396 43.0 387.5Q44 379 45.5 369.5Q47 360 48.5 352.5Q50 345 51 343Q52 340 56.0 334.5Q60 329 65.0 322.5Q70 316 74.5 310.5Q79 305 81 303Q82 303 86.0 301.5Q90 300 95.0 298.5Q100 297 104.5 295.5Q109 294 110 294L130 284Q133 283 139.5 281.5Q146 280 154.0 278.5Q162 277 169.0 275.5Q176 274 179 274Q180 274 185 274Q191 274 198 274Q205 274 210 274Q216 274 218 274Q220 274 227.5 269.0Q235 264 237 264Q238 264 242.5 265.5Q247 267 252.0 269.0Q257 271 261.5 272.5Q266 274 267 274Q271 274 278.5 271.5Q286 269 293.5 266.0Q301 263 307.5 259.5Q314 256 316 255Q317 253 320.5 246.5Q324 240 327.0 232.5Q330 225 332.5 217.5Q335 210 335 206Q335 204 335.5 190.0Q336 176 336 168Q336 160 335.5 144.5Q335 129 335 127Q335 125 331.0 117.5Q327 110 325.0 108.0Q323 106 316.0 98.0Q309 90 306 88Q302 85 295.5 80.0Q289 75 283.0 70.5Q277 66 272.0 62.5Q267 59 267 59H159Q157 61 149.5 64.5Q142 68 139 69Q138 69 134 69Q130 69 125 69Q120 69 115 69Q111 69 110 69Q109 69 104.0 71.5Q99 74 93.0 77.0Q87 80 80.5 83.0Q74 86 71 88Q70 89 65.5 92.0Q61 95 56.5 98.0Q52 101 47.5 104.0Q43 107 42 108Q40 109 31.0 110.5Q22 112 20 112Z" transform="translate(0,0)"/>
  <path d="M24 190Q24 182 24.5 169.5Q25 157 25 156Q25 154 29.0 146.5Q33 139 37.5 129.5Q42 120 46.5 111.0Q51 102 54 98Q56 95 63.5 87.5Q71 80 74.0 78.0Q77 76 85.5 71.5Q94 67 103.5 62.5Q113 58 121.0 54.0Q129 50 132.0 49.0Q135 48 141.5 46.0Q148 44 156.0 42.5Q164 41 171.0 40.0Q178 39 181 39Q182 39 189 39Q196 39 205.5 38.5Q215 38 224 38Q234 38 240 38Q246 38 255 38Q265 38 274.0 38.5Q283 39 290 39Q298 39 299 39Q302 39 310.5 40.5Q319 42 328.5 43.5Q338 45 346.0 46.5Q354 48 357 49Q359 50 365.0 52.5Q371 55 377.0 58.0Q383 61 388.5 63.5Q394 66 396 68Q401 71 412.0 82.5Q423 94 426 98Q426 99 427.5 103.0Q429 107 430.5 112.0Q432 117 433.5 121.5Q435 126 435 127Q436 129 440.5 136.5Q445 144 445 146Q445 147 445.5 151.0Q446 155 446 157Q446 159 445.5 162.5Q445 166 445 166Q443 168 438.0 172.0Q433 176 427.0 180.5Q421 185 415.0 189.0Q409 193 406 195Q406 196 402 196Q399 196 397 196Q395 196 391 196Q387 196 387 195Q384 194 378.5 191.5Q373 189 366.5 186.0Q360 183 354.5 180.0Q349 177 347 176Q346 175 342.0 170.5Q338 166 333.0 161.0Q328 156 323.5 151.5Q319 147 318 146Q318 146 313.0 145.0Q308 144 302.0 142.5Q296 141 289.5 139.5Q283 138 279 137Q279 137 277.0 136.5Q275 136 274 136Q273 136 271.5 136.5Q270 137 269 137Q268 137 263.5 138.5Q259 140 254.5 141.5Q250 143 245.5 144.5Q241 146 240 146Q240 147 238 147Q236 147 235 147Q231 147 230 146Q229 146 224.5 144.5Q220 143 215.5 141.5Q211 140 206.5 138.5Q202 137 201 137Q198 137 191.0 138.0Q184 139 176.0 140.5Q168 142 161.5 143.5Q155 145 152 146Q151 147 148.5 150.0Q146 153 142.5 156.5Q139 160 136.0 163.0Q133 166 132 166Q132 167 128.0 166.5Q124 166 123 166Q121 168 117.0 171.0Q113 174 113 176V352Q113 352 114.0 356.0Q115 360 116.5 364.5Q118 369 120.0 373.5Q122 378 123 381Q125 385 128.5 392.5Q132 400 132 401Q135 403 146.0 406.5Q157 410 162 410Q163 410 170.0 410.5Q177 411 186 411Q195 411 204 411Q214 411 220 411Q226 411 235 411Q245 411 254 411Q264 411 271.0 410.5Q278 410 279 410Q283 410 290.5 409.0Q298 408 305.5 406.5Q313 405 319.5 403.5Q326 402 328 401Q329 400 333.5 396.0Q338 392 343.0 386.5Q348 381 352.0 376.5Q356 372 357 371Q359 369 363.5 366.0Q368 363 373.0 360.0Q378 357 382.0 354.5Q386 352 387 352Q387 351 393 351Q399 351 402 351Q404 351 409 351Q415 351 416 352Q419 354 426.5 361.0Q434 368 435 371Q436 372 436 378Q436 385 436 389Q436 394 436 401Q436 409 435 410Q435 413 431.5 420.5Q428 428 426.0 430.0Q424 432 417.0 437.5Q410 443 402.5 449.5Q395 456 387.5 461.5Q380 467 377 469Q376 470 372.0 469.5Q368 469 367 469Q365 470 359.5 473.0Q354 476 347.5 479.0Q341 482 335.0 485.0Q329 488 328 489Q325 490 313.5 493.5Q302 497 299 498Q298 498 296.5 498.5Q295 499 293 499Q292 499 290.5 498.5Q289 498 289 498Q288 498 284.0 493.5Q280 489 279 489Q279 488 275 488Q274 488 272 488Q270 488 269 489Q266 489 251.5 490.5Q237 492 220.5 493.5Q204 495 189.5 496.5Q175 498 172 498H166H162Q160 497 152.0 493.5Q144 490 142.0 489.0Q140 488 134.0 483.0Q128 478 120.0 471.5Q112 465 104.5 458.5Q97 452 93 449Q92 449 88.5 444.5Q85 440 84 440Q82 438 74.0 434.5Q66 431 64 430Q61 428 53.5 420.0Q46 412 45 410Q43 407 39.0 396.0Q35 385 35 381Q34 375 32.5 355.5Q31 336 29.5 312.5Q28 289 26.5 267.0Q25 245 25 234Q25 233 25 227Q25 222 24.5 215.0Q24 208 24 201Q24 194 24 190Z" transform="translate(447,0)"/>
  <path d="M21 193Q21 188 21 180Q21 173 21.5 165.5Q22 158 22 152Q22 147 22 146Q22 144 26.5 136.0Q31 128 32 126Q32 125 31.5 116.5Q31 108 32 107Q33 105 38.0 101.0Q43 97 49.0 92.5Q55 88 61.5 83.5Q68 79 71 78Q73 76 85.5 72.5Q98 69 100.0 68.0Q102 67 110.0 63.5Q118 60 120 58H296Q298 59 303.5 62.5Q309 66 315.0 69.0Q321 72 326.5 74.5Q332 77 335 78Q336 78 345.0 78.5Q354 79 359 79Q364 79 373.5 78.5Q383 78 384 78Q385 77 388.5 72.5Q392 68 394 68Q394 68 403.5 67.5Q413 67 418 67Q423 67 432.5 67.5Q442 68 442 68Q444 68 448.0 72.0Q452 76 452 78Q452 81 451.0 87.5Q450 94 448.5 102.0Q447 110 445.0 116.5Q443 123 442 126Q442 127 439.0 131.5Q436 136 432.5 141.0Q429 146 426.0 150.0Q423 154 423 156Q422 159 420.5 168.0Q419 177 417.5 188.0Q416 199 414.5 209.0Q413 219 413 224Q413 229 413 249Q413 270 413 293Q413 316 413 336Q413 356 413 361Q413 362 410.5 369.5Q408 377 405.0 386.0Q402 395 399.0 404.5Q396 414 394 420Q392 423 388.5 430.5Q385 438 384 439Q381 443 369.5 454.5Q358 466 354 469Q352 471 344.5 474.5Q337 478 335 478Q330 479 320.0 481.0Q310 483 299.0 484.5Q288 486 278.5 487.0Q269 488 266 488Q264 488 258.5 486.5Q253 485 246.5 483.5Q240 482 234.0 480.0Q228 478 227 478Q225 478 216 478Q208 478 198 478Q188 478 179 478Q171 478 169 478Q167 478 159.0 473.5Q151 469 149 469Q134 464 119.0 461.5Q104 459 90 449L71 430Q70 428 67.0 422.5Q64 417 61.0 411.0Q58 405 55.0 399.0Q52 393 51 390V385V381Q53 377 61.0 370.0Q69 363 71 361Q71 361 75.0 360.5Q79 360 81 360Q83 360 86.5 360.5Q90 361 90 361Q92 362 99.5 369.5Q107 377 110 381Q111 382 114.5 390.5Q118 399 120 400Q123 404 134.0 415.5Q145 427 149 430H193H237Q238 430 244.0 428.5Q250 427 257.5 425.5Q265 424 273.0 422.5Q281 421 286.0 420.0Q291 419 301.0 416.5Q311 414 317.5 412.0Q324 410 325 410Q327 408 330.0 403.0Q333 398 336.5 392.0Q340 386 342.5 380.0Q345 374 345 371Q345 368 341.0 356.5Q337 345 335 342Q334 341 327.0 337.5Q320 334 315 332Q313 331 300.5 327.0Q288 323 286 322Q285 321 280.5 318.0Q276 315 271.5 312.0Q267 309 262.5 306.0Q258 303 257 302H252H247Q246 302 241.5 304.0Q237 306 232.5 307.5Q228 309 223.5 310.5Q219 312 218 312Q217 312 211.5 312.5Q206 313 199 313Q192 313 185 313Q179 313 175 313Q167 313 153 313Q140 313 139 312Q137 312 128.5 307.5Q120 303 110.0 298.0Q100 293 91.5 288.5Q83 284 81 283L51 273Q50 273 46.5 269.0Q43 265 42 263Q37 258 29.5 246.5Q22 235 22 234Q22 234 22 229Q22 224 21.5 217.5Q21 211 21 204Q21 197 21 193ZM81 166Q81 168 81.5 173.5Q82 179 83.5 185.0Q85 191 87.0 196.5Q89 202 90 205Q91 207 95.5 211.5Q100 216 104.5 220.5Q109 225 113.5 229.0Q118 233 120 234Q121 235 126.0 236.5Q131 238 137.5 239.5Q144 241 150.0 242.5Q156 244 159 244Q163 244 180.0 245.5Q197 247 217.0 248.5Q237 250 256.5 251.5Q276 253 286 254H309H325Q329 252 336.0 244.5Q343 237 345 234Q345 233 345.5 226.0Q346 219 346 215Q346 211 345.5 203.5Q345 196 345 195Q344 193 341.5 186.5Q339 180 336.0 172.0Q333 164 330.0 156.5Q327 149 325 146Q325 145 321.0 141.5Q317 138 315 136Q311 133 304.5 128.0Q298 123 292.0 118.5Q286 114 281.0 110.5Q276 107 276 107Q275 107 270.5 108.0Q266 109 261.5 111.0Q257 113 252.5 115.0Q248 117 247 117H237H227Q226 117 221.5 115.0Q217 113 212.5 111.5Q208 110 203.5 108.5Q199 107 198 107Q197 107 191.5 106.5Q186 106 183 106Q180 106 174.5 106.5Q169 107 169 107Q167 107 159.5 111.0Q152 115 149 117Q148 117 144.5 121.5Q141 126 139 126Q138 127 134.0 126.5Q130 126 130 126Q124 128 113.0 131.5Q102 135 100 136Q96 139 88.5 150.5Q81 162 81 166Z" transform="translate(915,0)"/>
  <path d="M340 115V68Q340 66 342.5 60.0Q345 54 348.0 46.0Q351 38 354.5 30.5Q358 23 360 19Q361 17 364.5 13.0Q368 9 370 9Q371 9 379.0 8.5Q387 8 391 8Q395 8 401.5 8.5Q408 9 409 9Q410 9 412.5 13.0Q415 17 418.0 21.5Q421 26 424.0 30.5Q427 35 428 38Q430 43 434.0 54.5Q438 66 438 68V322Q438 324 434.0 335.0Q430 346 428 352Q427 354 423.5 361.5Q420 369 419 371Q415 377 408.0 388.0Q401 399 399 401Q398 402 389.5 405.5Q381 409 379.0 410.0Q377 411 371.5 415.5Q366 420 359.5 425.5Q353 431 347.5 435.0Q342 439 340 440Q339 440 335 440Q331 440 326 440Q321 440 316 440Q312 440 311 440Q309 440 301.0 444.5Q293 449 291 450Q290 450 286.5 449.5Q283 449 282 450Q280 450 271.0 451.5Q262 453 252.5 454.5Q243 456 234.0 457.5Q225 459 223 459Q221 460 212 460Q203 460 198 460Q193 460 184 460Q175 460 174 459Q172 459 166.5 457.5Q161 456 154.5 454.5Q148 453 142.0 451.5Q136 450 135 450Q134 449 130 449Q125 449 125 450Q123 450 115.0 454.5Q107 459 105 459Q104 460 96.0 460.5Q88 461 83 461Q79 461 72.5 460.5Q66 460 66 459Q66 459 62.0 447.5Q58 436 56 430Q54 422 51.0 409.0Q48 396 45.0 383.5Q42 371 39.5 362.0Q37 353 37 352Q36 345 36 319Q36 293 36.5 263.5Q37 234 37 208Q37 182 37 175Q37 173 35.5 166.0Q34 159 32.0 151.0Q30 143 28.5 135.5Q27 128 27 126Q27 125 26.5 110.0Q26 95 26 87Q26 82 26.5 67.5Q27 53 27 48Q29 46 36.5 38.5Q44 31 47 29Q49 27 56.5 23.0Q64 19 66 19Q68 19 75.5 23.0Q83 27 86 29Q88 31 95.5 38.5Q103 46 105 48Q107 53 110.0 67.0Q113 81 116.5 96.5Q120 112 122.5 126.0Q125 140 125 146Q125 152 125 178Q125 204 125 234Q125 264 125 290Q125 316 125 322Q125 326 129.0 341.0Q133 356 135 361Q136 363 139.0 366.5Q142 370 144 371Q149 373 164.0 376.5Q179 380 184 381Q185 381 192 381Q200 381 208 381Q216 381 223 381Q231 381 233 381Q237 381 248.0 382.5Q259 384 271.5 385.5Q284 387 295.0 388.5Q306 390 311 391Q313 390 317.5 386.0Q322 382 326.5 377.0Q331 372 335.0 367.5Q339 363 340.0 361.0Q341 359 343.0 352.5Q345 346 346.5 338.0Q348 330 349.0 323.0Q350 316 350 313Q350 308 348.5 287.5Q347 267 345.5 244.0Q344 221 342.0 200.5Q340 180 340 175Z" transform="translate(1388,0)"/>
</g>
</g>
</svg>
